<?xml version="1.0" encoding="UTF-8"?>
<svg width="330px" height="349px" viewBox="0 0 330 349" version="1.1" xmlns="http://www.w3.org/2000/svg" xmlns:xlink="http://www.w3.org/1999/xlink">
    <!-- Generator: Sketch 62 (91390) - https://sketch.com -->
    <title>lighthouse-icon-square</title>
    <desc>Created with Sketch.</desc>
    <defs>
        <rect id="path-1" x="0" y="0" width="330" height="349"></rect>
        <radialGradient cx="50%" cy="52.9613598%" fx="50%" fy="52.9613598%" r="47.0386402%" id="radialGradient-3">
            <stop stop-color="#FFFFFF" offset="0%"></stop>
            <stop stop-color="#FFFEFE" offset="15.9733953%"></stop>
            <stop stop-color="#FEFBFB" stop-opacity="0.659992351" offset="57.5934333%"></stop>
            <stop stop-color="#FDF8F8" stop-opacity="0" offset="100%"></stop>
        </radialGradient>
        <linearGradient x1="94.8743666%" y1="50%" x2="-6.66133815e-14%" y2="57.9797177%" id="linearGradient-4">
            <stop stop-color="#FFFFFF" stop-opacity="0.13824847" offset="0%"></stop>
            <stop stop-color="#FFFFFD" stop-opacity="0.915100524" offset="100%"></stop>
        </linearGradient>
        <linearGradient x1="84.9899704%" y1="51.0411127%" x2="2.20386402%" y2="56.7832508%" id="linearGradient-5">
            <stop stop-color="#FFFFFF" stop-opacity="0.27933785" offset="0%"></stop>
            <stop stop-color="#FFFFFD" stop-opacity="0.795563811" offset="100%"></stop>
        </linearGradient>
        <linearGradient x1="77.2540118%" y1="50%" x2="0%" y2="50%" id="linearGradient-6">
            <stop stop-color="#FFFFFF" stop-opacity="0.419443837" offset="0%"></stop>
            <stop stop-color="#FFFFFD" stop-opacity="0.749016608" offset="100%"></stop>
        </linearGradient>
        <linearGradient x1="79.9144848%" y1="50%" x2="0%" y2="50%" id="linearGradient-7">
            <stop stop-color="#FFFFFF" stop-opacity="0.260735358" offset="0%"></stop>
            <stop stop-color="#FFFFFD" stop-opacity="0.936106862" offset="100%"></stop>
        </linearGradient>
        <linearGradient x1="58.1872889%" y1="50%" x2="0%" y2="50%" id="linearGradient-8">
            <stop stop-color="#FFFFFF" stop-opacity="0.234784747" offset="0%"></stop>
            <stop stop-color="#FFFFFD" stop-opacity="0.497541521" offset="100%"></stop>
        </linearGradient>
        <linearGradient x1="81.8069046%" y1="50%" x2="29.4490174%" y2="50%" id="linearGradient-9">
            <stop stop-color="#FFFFFF" stop-opacity="0" offset="0%"></stop>
            <stop stop-color="#FFFFFD" stop-opacity="0.656932911" offset="100%"></stop>
        </linearGradient>
        <linearGradient x1="100%" y1="50%" x2="0%" y2="50%" id="linearGradient-10">
            <stop stop-color="#FFFFFF" stop-opacity="0.0476398601" offset="0%"></stop>
            <stop stop-color="#FFFFFD" stop-opacity="0.539963942" offset="100%"></stop>
        </linearGradient>
        <linearGradient x1="81.994299%" y1="50%" x2="0%" y2="50%" id="linearGradient-11">
            <stop stop-color="#FFFFFF" stop-opacity="0" offset="0%"></stop>
            <stop stop-color="#FFFFFD" stop-opacity="0.865903628" offset="100%"></stop>
        </linearGradient>
        <linearGradient x1="94.7366629%" y1="100%" x2="9.14523679%" y2="50%" id="linearGradient-12">
            <stop stop-color="#FFFFFF" stop-opacity="0" offset="0%"></stop>
            <stop stop-color="#FFFFFD" offset="100%"></stop>
        </linearGradient>
        <linearGradient x1="90.3505068%" y1="50%" x2="0%" y2="50%" id="linearGradient-13">
            <stop stop-color="#FFFFFF" stop-opacity="0" offset="0%"></stop>
            <stop stop-color="#FFFFFD" stop-opacity="0.827769886" offset="100%"></stop>
        </linearGradient>
    </defs>
    <g id="Jean-Ruggiero-Personal-Site" stroke="none" stroke-width="1" fill="none" fill-rule="evenodd">
        <g id="Portfolio" transform="translate(-375.000000, -546.000000)">
            <g id="lighthouse_cover" transform="translate(375.000000, 546.000000)">
                <g id="lighthouse-icon-square">
                    <g id="Mask" fill="#D8D8D8" fill-rule="nonzero">
                        <rect id="path-1" x="0" y="0" width="330" height="349"></rect>
                    </g>
                    <g id="Clipped">
                        <mask id="mask-2" fill="white">
                            <use xlink:href="#path-1"></use>
                        </mask>
                        <g id="path-1"></g>
                        <g id="Group" mask="url(#mask-2)" fill-rule="nonzero">
                            <g transform="translate(-27.573363, -27.573363)">
                                <path d="M403.358916,288.22716 C403.358916,328.26098 399.190564,342.77821 391.363271,357.413976 C383.535978,372.049743 372.049743,383.535978 357.413976,391.363271 C342.924568,399.112292 328.551336,403.275183 289.420545,403.358916 L288.22716,403.358916 L115.131757,403.358916 L113.938372,403.358916 C74.8075803,403.275183 60.4343486,399.112292 45.94494,391.363271 C31.3091737,383.535978 19.8229388,372.049743 11.9956453,357.413976 C4.24662482,342.924568 0.0837329316,328.551336 0,289.420545 L0,288.22716 L0,113.938372 C0.0837329316,74.8075803 4.24662482,60.4343486 11.9956453,45.94494 C19.8229388,31.3091737 31.3091737,19.8229388 45.94494,11.9956453 C60.4343486,4.24662482 74.8075803,0.0837329316 113.938372,0 L115.131757,0 L289.420545,0 C328.551336,0.0837329316 342.924568,4.24662482 357.413976,11.9956453 C372.049743,19.8229388 383.535978,31.3091737 391.363271,45.94494 C399.112292,60.4343486 403.275183,74.8075803 403.358916,113.938372 L403.358916,115.131757 L403.358916,288.22716 Z" id="Path" fill="#0D4E7B"></path>
                                <circle id="Oval" fill="url(#radialGradient-3)" cx="88.6286682" cy="302.125282" r="12.9988713"></circle>
                                <path d="M100.632745,310.397291 C101.444007,310.397291 102.122668,311.013301 102.201002,311.820772 L110.913651,401.631156 C110.993087,402.449983 110.430762,403.18312 109.63727,403.331746 L108.163691,403.314099 C88.6824402,403.050213 75.8291513,401.643075 65.8763744,399.166181 L76.0480744,311.790718 C76.1405469,310.996376 76.8134191,310.397291 77.6131259,310.397291 L100.632745,310.397291 Z" id="Path" fill="#FFFFFF"></path>
                                <polygon id="Path" fill="url(#linearGradient-4)" points="403.3587 78.6360813 403.3587 141.494684 89.585545 302.029157 88.7009301 302.53989"></polygon>
                                <polygon id="Path" fill="url(#linearGradient-5)" points="-1.67931884e-14 239.982011 89.0708331 302.554863 89.4958276 302.790442 -1.67931884e-14 274.24546"></polygon>
                                <path d="M89.0988452,302.26925 L16.6131197,365.064361 C14.955602,362.619886 13.4154304,360.068744 11.9956453,357.413976 C9.47590021,352.702463 7.33533507,348.003233 5.5909443,342.461082 L88.7939918,302.452424 L89.0988452,302.26925 Z" id="Path" fill="url(#linearGradient-6)"></path>
                                <path d="M88.9135057,302.086372 L370.246835,382.92879 C366.289894,386.090139 362.007027,388.906881 357.413976,391.363271 C356.088209,392.072299 354.763414,392.751304 353.420538,393.399907 L89.8849776,302.402023 L88.9135057,302.086372 Z" id="Path" fill="url(#linearGradient-7)"></path>
                                <polygon id="Path" fill="url(#linearGradient-8)" points="403.358883 240.321558 403.358883 250.857734 89.3801195 302.576901 88.3741723 302.754276"></polygon>
                                <path d="M401.782595,269.950003 L401.782595,285.834624 L90.725457,302.085532 L89.7064802,302.156786 L401.782595,269.950003 Z M477.039957,262.183768 L478.413829,281.831052 L476.624582,281.924721 L476.624582,262.22631 L477.039957,262.183768 Z" id="Shape" fill="url(#linearGradient-9)"></path>
                                <polygon id="Path" fill="url(#linearGradient-10)" points="403.358708 202.136388 403.358708 208.420752 89.3650109 302.244749 88.388178 302.543397"></polygon>
                                <polygon id="Path" fill="url(#linearGradient-11)" points="88.9306745 301.583372 401.782783 364.20248 401.782783 370.152024 89.9298182 301.795747"></polygon>
                                <polygon id="Path" fill-opacity="0.497541521" fill="#FFFFFD" points="-1.67931884e-14 281.855709 88.9949953 302.473173 89.342875 302.547117 -1.67931884e-14 286.723589"></polygon>
                                <path d="M345.071728,6.46272478 C349.256777,7.94224744 353.00084,9.66771273 356.726583,11.6307218 L89.4863392,302.10119 L88.7682556,302.898703 L345.071728,6.46272478 Z" id="Path" fill="url(#linearGradient-12)"></path>
                                <polygon id="Path" fill="url(#linearGradient-13)" points="-3.91841062e-14 213.970088 89.2226228 302.372935 89.5855513 302.723411 -3.91841062e-14 220.285176"></polygon>
                            </g>
                        </g>
                    </g>
                </g>
            </g>
        </g>
    </g>
</svg>