<?xml version="1.0" encoding="UTF-8"?>
<svg width="46px" height="46px" viewBox="0 0 46 46" version="1.1" xmlns="http://www.w3.org/2000/svg" xmlns:xlink="http://www.w3.org/1999/xlink">
    <!-- Generator: Sketch 59.1 (86144) - https://sketch.com -->
    <title>email_icon</title>
    <desc>Created with Sketch.</desc>
    <defs>
        <filter x="-27.6%" y="-27.6%" width="155.3%" height="155.3%" filterUnits="objectBoundingBox" id="filter-1">
            <feOffset dx="1" dy="1" in="SourceAlpha" result="shadowOffsetOuter1"></feOffset>
            <feGaussianBlur stdDeviation="2" in="shadowOffsetOuter1" result="shadowBlurOuter1"></feGaussianBlur>
            <feColorMatrix values="0 0 0 0 0   0 0 0 0 0   0 0 0 0 0  0 0 0 0.5 0" type="matrix" in="shadowBlurOuter1" result="shadowMatrixOuter1"></feColorMatrix>
            <feMerge>
                <feMergeNode in="shadowMatrixOuter1"></feMergeNode>
                <feMergeNode in="SourceGraphic"></feMergeNode>
            </feMerge>
        </filter>
    </defs>
    <g id="Symbols" stroke="none" stroke-width="1" fill="none" fill-rule="evenodd">
        <g id="Email-Logo" transform="translate(3.000000, 3.000000)">
            <g id="email_icon" filter="url(#filter-1)">
                <rect id="Rectangle" fill="#FFFFFF" x="3" y="2" width="31" height="31"></rect>
                <path d="M31.9,1.0658141e-14 C34.9375661,1.09883276e-14 37.4,2.46243388 37.4,5.5 L37.4,31.9 C37.4,34.9375661 34.9375661,37.4 31.9,37.4 L5.5,37.4 C2.46243388,37.4 -4.95707596e-15,34.9375661 -3.55271368e-15,31.9 L-3.55271368e-15,5.5 C-3.03652982e-15,2.46243388 2.46243388,9.43977604e-15 5.5,1.0658141e-14 L31.9,1.0658141e-14 Z M18.8584,4.2606 C16.9135903,4.2606 15.0810086,4.62212972 13.3606,5.3452 C11.6401914,6.06827028 10.1317398,7.0531271 8.8352,8.2998 C7.53866018,9.5464729 6.51640374,11.0237581 5.7684,12.7317 C5.02039626,14.4396419 4.6464,16.2784568 4.6464,18.2482 C4.6464,20.2428766 5.02039626,22.0941581 5.7684,23.8021 C6.51640374,25.5100419 7.54489345,26.9873271 8.8539,28.234 C10.1629065,29.4806729 11.6900579,30.4530632 13.4354,31.1512 C15.1807421,31.8493368 17.0507234,32.1984 19.0454,32.1984 C21.3891451,32.1984 23.5583234,31.6810385 25.553,30.6463 C27.5476766,29.6115615 29.1807936,28.1218097 30.4524,26.177 L27.3108,26.177 C26.3383951,27.1494049 25.1478404,27.9036307 23.7391,28.4397 C22.3303596,28.9757693 20.8406079,29.2438 19.2698,29.2438 C17.6740587,29.2438 16.1967735,28.9820026 14.8379,28.4584 C13.4790265,27.9347974 12.3134049,27.1930381 11.341,26.2331 C10.3685951,25.2731619 9.60813608,24.12624 9.0596,22.7923 C8.51106392,21.45836 8.2368,19.9686082 8.2368,18.323 C8.2368,16.7521921 8.48613084,15.2873735 8.9848,13.9285 C9.48346916,12.5696265 10.1940621,11.3977716 11.1166,10.4129 C12.0391379,9.42802841 13.1548935,8.65510281 14.4639,8.0941 C15.7729065,7.5330972 17.2252587,7.2526 18.821,7.2526 C20.2422071,7.2526 21.5698938,7.45206467 22.8041,7.851 C24.0383062,8.24993533 25.1104288,8.84209607 26.0205,9.6275 C26.9305712,10.4129039 27.6473974,11.3728277 28.171,12.5073 C28.6946026,13.6417723 28.9564,14.9569925 28.9564,16.453 C28.9564,17.4503383 28.8255013,18.3728624 28.5637,19.2206 C28.3018987,20.0683376 27.9653021,20.7976303 27.5539,21.4085 C27.1424979,22.0193697 26.6687693,22.4930983 26.1327,22.8297 C25.5966307,23.1663017 25.0668026,23.3346 24.5432,23.3346 C24.3187989,23.3346 24.1567338,23.2535675 24.057,23.0915 C23.9572662,22.9294325 23.9074,22.7237346 23.9074,22.4744 C23.9074,22.2250654 23.9385664,21.9570348 24.0009,21.6703 C24.0632336,21.3835652 24.1317996,21.1155346 24.2066,20.8662 L26.5628,11.217 L23.496,11.217 L22.8976,13.2366 C22.4737312,12.2641951 21.8379376,11.5847686 20.9902,11.1983 C20.1424624,10.8118314 19.3196707,10.6186 18.5218,10.6186 C17.3000606,10.6186 16.184305,10.8928639 15.1745,11.4414 C14.164695,11.9899361 13.3045036,12.7129955 12.5939,13.6106 C11.8832964,14.5082045 11.3347686,15.5304609 10.9483,16.6774 C10.5618314,17.8243391 10.3686,18.9837275 10.3686,20.1556 C10.3686,21.028271 10.5244318,21.8510628 10.8361,22.624 C11.1477682,23.3969372 11.5716307,24.0763637 12.1077,24.6623 C12.6437693,25.2482363 13.2670964,25.7094983 13.9777,26.0461 C14.6883036,26.3827017 15.4425293,26.551 16.2404,26.551 C17.0382707,26.551 17.7987297,26.3764684 18.5218,26.0274 C19.2448703,25.6783316 19.8307978,25.1298037 20.2796,24.3818 L20.3544,24.3818 C20.4042669,25.0051365 20.6722976,25.5162647 21.1585,25.9152 C21.6447024,26.3141353 22.2867293,26.5136 23.0846,26.5136 C23.683003,26.5136 24.4746284,26.3079021 25.4595,25.8965 C26.4443716,25.4850979 27.4167619,24.843071 28.3767,23.9704 C29.3366381,23.097729 30.1594299,21.9757402 30.8451,20.6044 C31.5307701,19.2330598 31.8736,17.5874763 31.8736,15.6676 C31.8736,13.9471914 31.5120703,12.3826404 30.789,10.9739 C30.0659297,9.56515962 29.106006,8.36837159 27.9092,7.3835 C26.712394,6.39862841 25.3286079,5.63193608 23.7578,5.0834 C22.1869921,4.53486392 20.5538751,4.2606 18.8584,4.2606 Z M18.821,14.1716 C19.6188707,14.1716 20.2982972,14.470797 20.8593,15.0692 C21.4203028,15.667603 21.7008,16.4280621 21.7008,17.3506 C21.7008,17.9988699 21.5886011,18.6595966 21.3642,19.3328 C21.1397989,20.0060034 20.8219021,20.6106307 20.4105,21.1467 C19.9990979,21.6827693 19.5129028,22.1253316 18.9519,22.4744 C18.3908972,22.8234684 17.7738034,22.998 17.1006,22.998 C16.227929,22.998 15.5235693,22.6925697 14.9875,22.0817 C14.4514307,21.4708303 14.1834,20.6667383 14.1834,19.6694 C14.1834,19.0460636 14.2955989,18.4102699 14.52,17.762 C14.7444011,17.1137301 15.0622979,16.5215693 15.4737,15.9855 C15.8851021,15.4494307 16.3775305,15.0131017 16.951,14.6765 C17.5244695,14.3398983 18.1477966,14.1716 18.821,14.1716 Z" id="Combined-Shape" fill="#333333"></path>
            </g>
        </g>
    </g>
</svg>