<?xml version="1.0" encoding="UTF-8"?>
<svg width="47px" height="46px" viewBox="0 0 47 46" version="1.1" xmlns="http://www.w3.org/2000/svg" xmlns:xlink="http://www.w3.org/1999/xlink">
    <!-- Generator: Sketch 59.1 (86144) - https://sketch.com -->
    <title>github_icon</title>
    <desc>Created with Sketch.</desc>
    <defs>
        <filter x="-26.9%" y="-27.6%" width="153.8%" height="155.3%" filterUnits="objectBoundingBox" id="filter-1">
            <feOffset dx="1" dy="1" in="SourceAlpha" result="shadowOffsetOuter1"></feOffset>
            <feGaussianBlur stdDeviation="2" in="shadowOffsetOuter1" result="shadowBlurOuter1"></feGaussianBlur>
            <feColorMatrix values="0 0 0 0 0   0 0 0 0 0   0 0 0 0 0  0 0 0 0.5 0" type="matrix" in="shadowBlurOuter1" result="shadowMatrixOuter1"></feColorMatrix>
            <feMerge>
                <feMergeNode in="shadowMatrixOuter1"></feMergeNode>
                <feMergeNode in="SourceGraphic"></feMergeNode>
            </feMerge>
        </filter>
    </defs>
    <g id="Symbols" stroke="none" stroke-width="1" fill="none" fill-rule="evenodd">
        <g id="GitHub-Logo" transform="translate(3.000000, 3.000000)">
            <g id="github_icon" filter="url(#filter-1)">
                <path d="M19.175,1.0658141e-14 C29.7650601,1.0658141e-14 38.35,8.58493992 38.35,19.175 C38.35,27.7950812 32.6619537,35.0866479 24.8344263,37.5011351 L13.5155737,37.5011351 C5.68804629,35.0866479 0,27.7950812 0,19.175 C0,8.58493992 8.58493992,1.0658141e-14 19.175,1.0658141e-14 Z" id="Combined-Shape" fill="#FFFFFF"></path>
                <path d="M19.1714793,0.1 C8.58526337,0.1 8.52651283e-14,8.68408634 8.52651283e-14,19.2738333 C8.52651283e-14,27.7449247 5.4932032,34.9306983 13.1121242,37.4660229 C14.0714044,37.6425775 14.4209826,37.050531 14.4209826,36.5420536 C14.4209826,36.0877197 14.4045041,34.881263 14.3950879,33.281678 C9.06196088,34.4398764 7.93671934,30.7110426 7.93671934,30.7110426 C7.06453945,28.4958704 5.80747045,27.9061779 5.80747045,27.9061779 C4.06664175,26.7173767 5.93929791,26.7409173 5.93929791,26.7409173 C7.86374343,26.8762759 8.87599,28.7171522 8.87599,28.7171522 C10.5862159,31.6467821 13.3640088,30.8004969 14.4562935,30.309675 C14.6304941,29.0714385 15.1260241,28.2263303 15.6733434,27.7472788 C11.4160227,27.2635191 6.93977417,25.6180299 6.93977417,18.271003 C6.93977417,16.1782421 7.68718879,14.4656621 8.91365499,13.1262009 C8.7159138,12.6412642 8.05795352,10.690924 9.10197993,8.05202074 C9.10197993,8.05202074 10.7109812,7.53648121 14.3739013,10.0176623 C15.9028645,9.59157716 17.5436455,9.3797116 19.1738333,9.37147238 C20.8028441,9.3797116 22.4424481,9.59157716 23.9737653,10.0176623 C27.6343314,7.53648121 29.2409786,8.05202074 29.2409786,8.05202074 C30.2873591,10.690924 29.6293988,12.6412642 29.4328346,13.1262009 C30.6616549,14.4656621 31.4031843,16.1782421 31.4031843,18.271003 C31.4031843,25.6368624 26.9198737,27.2576339 22.6496056,27.7319774 C23.3369916,28.3240239 23.9502247,29.4939926 23.9502247,31.2830796 C23.9502247,33.8454758 23.9266841,35.9135191 23.9266841,36.5420536 C23.9266841,37.0552391 24.2727312,37.6519938 25.2449587,37.4648458 C32.8579945,34.9236361 38.3464896,27.7425706 38.3464896,19.2738333 C38.3464896,8.68408634 29.7612262,0.1 19.1714793,0.1" id="Fill-4" fill="#161514"></path>
            </g>
        </g>
    </g>
</svg>