<?xml version="1.0" encoding="UTF-8"?>
<svg width="34px" height="18px" viewBox="0 0 34 18" version="1.1" xmlns="http://www.w3.org/2000/svg" xmlns:xlink="http://www.w3.org/1999/xlink">
    <!-- Generator: Sketch 59.1 (86144) - https://sketch.com -->
    <title>grad_icon</title>
    <desc>Created with Sketch.</desc>
    <g id="Symbols" stroke="none" stroke-width="1" fill="none" fill-rule="evenodd">
        <g id="Graduation-Date-Icon" fill="#5D397B">
            <path d="M17.7969167,-3.19744231e-13 L32.7825446,5.7553502 L28.9298814,7.87318177 C28.9425792,7.91407436 28.9547499,7.95553066 28.9663933,7.99755066 C29.4980139,9.91612226 27.1014991,12.3300074 28.0210013,14.2948327 C28.9405034,16.2596579 32.849386,16.2596579 33.4607936,16.76584 C33.7524213,17.0072774 33.2269738,18.1970702 32.849386,17.9717662 C32.4717982,17.7464623 28.1008183,16.5008971 27.1014991,14.4865399 C26.1271224,12.5224598 28.256178,9.98288301 28.0421361,8.36171483 L21.7360697,11.8290139 C23.3990246,13.2779947 24.4707858,15.3881597 24.5417037,17.7498595 L24.5454545,18 L8.18181818,18 C8.18181818,16.3185649 8.68902628,14.7555946 9.55878858,13.455743 L8.48210391e-13,9.78404224 L17.7969167,-3.19744231e-13 Z" id="grad_icon"></path>
        </g>
    </g>
</svg>