<?xml version="1.0" encoding="UTF-8"?>
<svg width="27px" height="13px" viewBox="0 0 27 13" version="1.1" xmlns="http://www.w3.org/2000/svg" xmlns:xlink="http://www.w3.org/1999/xlink">
    <!-- Generator: Sketch 59.1 (86144) - https://sketch.com -->
    <title>Graduation Date Icon Copy 2</title>
    <desc>Created with Sketch.</desc>
    <g id="Symbols" stroke="none" stroke-width="1" fill="none" fill-rule="evenodd">
        <g id="Grad-Date" transform="translate(0.000000, -4.000000)" fill="#5D397B">
            <g id="Graduation-Date-Icon" transform="translate(0.000000, 4.500000)">
                <path d="M13.993023,6.21724894e-15 L25.7756391,4.00962885 L22.6913635,5.5114218 C22.7039305,5.54574486 22.7158723,5.58064863 22.727189,5.61613312 C23.1507496,6.94424219 21.2413634,8.61522635 21.9739625,9.97535397 C22.7065617,11.3354816 25.8209036,11.3354816 26.3080332,11.6858803 C26.5403831,11.8530126 26.1217409,12.6766329 25.8209036,12.5206688 C25.5200664,12.3647048 22.0375555,11.5024766 21.2413634,10.1080611 C20.4618746,8.74289897 22.1752267,6.97609665 21.9886192,5.85450957 L17.0700723,8.24961122 C18.3026406,9.20545729 19.0935114,10.5506619 19.1599039,12.0498789 L19.1644403,12.2550857 L6.01059415,12.2550857 C6.01059415,11.1380848 6.41261274,10.0992298 7.10279978,9.23327313 L0,6.81633205 L13.993023,6.21724894e-15 Z" id="Combined-Shape"></path>
            </g>
        </g>
    </g>
</svg>