<?xml version="1.0" encoding="UTF-8"?>
<svg width="65px" height="12px" viewBox="0 0 65 12" version="1.1" xmlns="http://www.w3.org/2000/svg" xmlns:xlink="http://www.w3.org/1999/xlink">
    <!-- Generator: Sketch 59.1 (86144) - https://sketch.com -->
    <title>2-star Mobile</title>
    <desc>Created with Sketch.</desc>
    <g id="2-star-Mobile" stroke="none" stroke-width="1" fill="none" fill-rule="evenodd">
        <g id="Group-3" stroke="#5D397B" stroke-width="0.5">
            <polygon id="Star" fill="#5D397B" points="6 9 2.47328849 10.854102 3.14683045 6.92705098 0.293660902 4.14589803 4.23664424 3.57294902 6 0 7.76335576 3.57294902 11.7063391 4.14589803 8.85316955 6.92705098 9.52671151 10.854102"></polygon>
            <polygon id="Star-Copy" fill="#5D397B" points="19.1428571 9 15.6161456 10.854102 16.2896876 6.92705098 13.436518 4.14589803 17.3795014 3.57294902 19.1428571 0 20.9062129 3.57294902 24.8491962 4.14589803 21.9960267 6.92705098 22.6695687 10.854102"></polygon>
            <polygon id="Star-Copy-2" fill="#FFFFFF" points="32.2857143 9 28.7590028 10.854102 29.4325447 6.92705098 26.5793752 4.14589803 30.5223585 3.57294902 32.2857143 0 34.04907 3.57294902 37.9920534 4.14589803 35.1388838 6.92705098 35.8124258 10.854102"></polygon>
            <polygon id="Star-Copy-3" fill="#FFFFFF" points="45.4285714 9 41.9018599 10.854102 42.5754019 6.92705098 39.7222323 4.14589803 43.6652157 3.57294902 45.4285714 0 47.1919272 3.57294902 51.1349105 4.14589803 48.281741 6.92705098 48.9552829 10.854102"></polygon>
            <polygon id="Star-Copy-4" fill="#FFFFFF" points="58.5714286 9 55.0447171 10.854102 55.718259 6.92705098 52.8650895 4.14589803 56.8080728 3.57294902 58.5714286 0 60.3347843 3.57294902 64.2777677 4.14589803 61.4245981 6.92705098 62.0981401 10.854102"></polygon>
        </g>
    </g>
</svg>