<?xml version="1.0" encoding="UTF-8"?>
<svg width="113px" height="20px" viewBox="0 0 113 20" version="1.1" xmlns="http://www.w3.org/2000/svg" xmlns:xlink="http://www.w3.org/1999/xlink">
    <!-- Generator: Sketch 59.1 (86144) - https://sketch.com -->
    <title>Group 3</title>
    <desc>Created with Sketch.</desc>
    <g id="Symbols" stroke="none" stroke-width="1" fill="none" fill-rule="evenodd">
        <g id="2-star" stroke="#5D397B" stroke-width="0.675">
            <g id="Group-3">
                <polygon id="Star" fill="#5D397B" points="10.5 15.75 4.32825485 18.9946784 5.50695329 12.1223392 0.513906579 7.25532156 7.41412743 6.25266078 10.5 0 13.5858726 6.25266078 20.4860934 7.25532156 15.4930467 12.1223392 16.6717451 18.9946784"></polygon>
                <polygon id="Star-Copy" fill="#5D397B" points="33.5 15.75 27.3282549 18.9946784 28.5069533 12.1223392 23.5139066 7.25532156 30.4141274 6.25266078 33.5 0 36.5858726 6.25266078 43.4860934 7.25532156 38.4930467 12.1223392 39.6717451 18.9946784"></polygon>
                <polygon id="Star-Copy-2" fill="#FFFFFF" points="56.5 15.75 50.3282549 18.9946784 51.5069533 12.1223392 46.5139066 7.25532156 53.4141274 6.25266078 56.5 0 59.5858726 6.25266078 66.4860934 7.25532156 61.4930467 12.1223392 62.6717451 18.9946784"></polygon>
                <polygon id="Star-Copy-3" fill="#FFFFFF" points="79.5 15.75 73.3282549 18.9946784 74.5069533 12.1223392 69.5139066 7.25532156 76.4141274 6.25266078 79.5 0 82.5858726 6.25266078 89.4860934 7.25532156 84.4930467 12.1223392 85.6717451 18.9946784"></polygon>
                <polygon id="Star-Copy-4" fill="#FFFFFF" points="102.5 15.75 96.3282549 18.9946784 97.5069533 12.1223392 92.5139066 7.25532156 99.4141274 6.25266078 102.5 0 105.585873 6.25266078 112.486093 7.25532156 107.493047 12.1223392 108.671745 18.9946784"></polygon>
            </g>
        </g>
    </g>
</svg>