<?xml version="1.0" encoding="UTF-8"?>
<svg width="12px" height="12px" viewBox="0 0 12 12" version="1.1" xmlns="http://www.w3.org/2000/svg" xmlns:xlink="http://www.w3.org/1999/xlink">
    <!-- Generator: Sketch 60.1 (88133) - https://sketch.com -->
    <title>Shape Copy</title>
    <desc>Created with Sketch.</desc>
    <g id="Symbols" stroke="none" stroke-width="1" fill="none" fill-rule="evenodd">
        <path d="M10.6666667,0 L1.33333333,0 C0.6,0 0,0.6 0,1.33333333 L0,10.6666667 C0,11.4 0.6,12 1.33333333,12 L10.6666667,12 C11.4,12 12,11.4 12,10.6666667 L12,1.33333333 C12,0.6 11.4,0 10.6666667,0 Z M4,9.33333333 L2.66666667,9.33333333 L2.66666667,4.66666667 L4,4.66666667 L4,9.33333333 Z M6.66666667,9.33333333 L5.33333333,9.33333333 L5.33333333,2.66666667 L6.66666667,2.66666667 L6.66666667,9.33333333 Z M9.33333333,9.33333333 L8,9.33333333 L8,6.66666667 L9.33333333,6.66666667 L9.33333333,9.33333333 Z" id="Shape-Copy" fill="#5D397B" fill-rule="nonzero"></path>
    </g>
</svg>