<?xml version="1.0" encoding="UTF-8"?>
<svg width="13px" height="21px" viewBox="0 0 13 21" version="1.1" xmlns="http://www.w3.org/2000/svg" xmlns:xlink="http://www.w3.org/1999/xlink">
    <!-- Generator: Sketch 59.1 (86144) - https://sketch.com -->
    <title>Location Icon</title>
    <desc>Created with Sketch.</desc>
    <g id="Symbols" stroke="none" stroke-width="1" fill="none" fill-rule="evenodd">
        <g id="Location" fill="#5D397B">
            <g id="Location-Icon">
                <path d="M6.5,2.84217094e-14 C10.0898509,2.84217094e-14 13,3.07621673 13,6.36363636 C13,7.37103443 12.7267204,8.35859934 12.2443457,9.24388603 L6.5,20.8542738 L0.76335775,9.358479 C0.68871999,9.22173152 0.619034412,9.08200307 0.55453553,8.93952322 L0.522596088,8.8754172 C0.187570992,8.10527492 0,7.25590088 0,6.36363636 C0,2.84909705 2.91014913,2.84217094e-14 6.5,2.84217094e-14 Z M6.5,3.81818182 C5.42304474,3.81818182 4.55,4.67291093 4.55,5.72727273 C4.55,6.78163452 5.42304474,7.63636364 6.5,7.63636364 C7.57695526,7.63636364 8.45,6.78163452 8.45,5.72727273 C8.45,4.67291093 7.57695526,3.81818182 6.5,3.81818182 Z" id="Combined-Shape"></path>
            </g>
        </g>
    </g>
</svg>