<?xml version="1.0" encoding="UTF-8"?>
<svg width="36px" height="30px" viewBox="0 0 36 30" version="1.1" xmlns="http://www.w3.org/2000/svg" xmlns:xlink="http://www.w3.org/1999/xlink">
    <!-- Generator: Sketch 59.1 (86144) - https://sketch.com -->
    <title>Combined Shape</title>
    <desc>Created with Sketch.</desc>
    <g id="Symbols" stroke="none" stroke-width="1" fill="none" fill-rule="evenodd">
        <g id="Calendar-Icon" fill="#5D397B">
            <path d="M36,25.5 C36,27.9852814 33.9852814,30 31.5,30 L4.5,30 C2.01471863,30 3.04359188e-16,27.9852814 0,25.5 L0,4.5 C-3.04359188e-16,2.01471863 2.01471863,4.56538782e-16 4.5,0 L31.5,0 C33.9852814,-4.56538782e-16 36,2.01471863 36,4.5 L36,25.5 Z M33,7.5 L3,7.5 L3,24.375 C3,25.768988 4.08658703,26.9091899 5.45899087,26.9948356 L5.625,27 L30.375,27 C31.768988,27 32.9091899,25.913413 32.9948356,24.5410091 L33,24.375 L33,7.5 Z" id="Combined-Shape"></path>
        </g>
    </g>
</svg>