<?xml version="1.0" encoding="UTF-8"?>
<svg width="14px" height="12px" viewBox="0 0 14 12" version="1.1" xmlns="http://www.w3.org/2000/svg" xmlns:xlink="http://www.w3.org/1999/xlink">
    <!-- Generator: Sketch 59.1 (86144) - https://sketch.com -->
    <title>Combined Shape Copy</title>
    <desc>Created with Sketch.</desc>
    <g id="Symbols" stroke="none" stroke-width="1" fill="none" fill-rule="evenodd">
        <g id="Date-Mobile" transform="translate(0.000000, -1.000000)" fill="#5D397B">
            <path d="M14,11.2 C14,12.1941125 13.1941125,13 12.2,13 L1.8,13 C0.80588745,13 -1.0030093e-16,12.1941125 0,11.2 L0,2.8 C1.0030093e-16,1.80588745 0.80588745,1 1.8,1 L12.2,1 C13.1941125,1 14,1.80588745 14,2.8 L14,11.2 Z M12.833,4 L1.166,4 L1.16666667,10.75 C1.16666667,11.2912391 1.57617688,11.7368319 2.1022576,11.7938387 L2.21666667,11.8 L11.7833333,11.8 C12.3245724,11.8 12.7701652,11.3904898 12.8271721,10.8644091 L12.8333333,10.75 L12.833,4 Z" id="Combined-Shape-Copy"></path>
        </g>
    </g>
</svg>