<?xml version="1.0" encoding="UTF-8"?>
<svg width="24px" height="24px" viewBox="0 0 24 24" version="1.1" xmlns="http://www.w3.org/2000/svg" xmlns:xlink="http://www.w3.org/1999/xlink">
    <!-- Generator: Sketch 60.1 (88133) - https://sketch.com -->
    <title>GitHub Logo Light</title>
    <desc>Created with Sketch.</desc>
    <g id="GitHub-Logo-Light" stroke="none" stroke-width="1" fill="none" fill-rule="evenodd">
        <path d="M12.2521279,2 C6.59104993,2 2,6.5904205 2,12.2533868 C2,16.7833822 4.93754182,20.6260419 9.01183112,21.9818304 C9.52481518,22.0762447 9.71175538,21.7596422 9.71175538,21.4877292 C9.71175538,21.2447699 9.70294338,20.5996059 9.69790796,19.7442129 C6.84596839,20.3635703 6.24423494,18.3695415 6.24423494,18.3695415 C5.77782858,17.1849574 5.10559917,16.8696139 5.10559917,16.8696139 C4.17467473,16.2338913 5.17609514,16.2464799 5.17609514,16.2464799 C6.20521039,16.3188641 6.74651872,17.30329 6.74651872,17.30329 C7.66107802,18.869937 9.14652878,18.417378 9.73063823,18.1549064 C9.82379361,17.4927479 10.0887829,17.0408184 10.3814671,16.784641 C8.10482496,16.525946 5.71110918,15.6460053 5.71110918,11.7171139 C5.71110918,10.5979904 6.11079615,9.68217225 6.76666042,8.96588286 C6.66091647,8.7065584 6.30906606,7.66359573 6.86736895,6.25241751 C6.86736895,6.25241751 7.72779742,5.97672792 9.68657825,7.30356275 C10.5042056,7.07570971 11.3816286,6.96241262 12.2533868,6.95800662 C13.1245156,6.96241262 14.0013092,7.07570971 14.8201954,7.30356275 C16.7777173,5.97672792 17.6368869,6.25241751 17.6368869,6.25241751 C18.1964487,7.66359573 17.8445983,8.7065584 17.7394838,8.96588286 C18.3966069,9.68217225 18.7931467,10.5979904 18.7931467,11.7171139 C18.7931467,15.6560761 16.3956544,16.5227989 14.1120885,16.7764585 C14.4796747,17.0930609 14.8076068,17.7187126 14.8076068,18.6754436 C14.8076068,20.045709 14.7950182,21.1516145 14.7950182,21.4877292 C14.7950182,21.7621599 14.9800701,22.0812801 15.4999779,21.981201 C19.5711201,20.6222653 22.5061442,16.7821233 22.5061442,12.2533868 C22.5061442,6.5904205 17.9150942,2 12.2521279,2" id="Fill-4" fill="#FFFFFF"></path>
    </g>
</svg>