<?xml version="1.0" encoding="UTF-8"?>
<svg width="23px" height="12px" viewBox="0 0 23 12" version="1.1" xmlns="http://www.w3.org/2000/svg" xmlns:xlink="http://www.w3.org/1999/xlink">
    <!-- Generator: Sketch 59.1 (86144) - https://sketch.com -->
    <title>Graduation Date Icon Copy 2</title>
    <desc>Created with Sketch.</desc>
    <g id="Symbols" stroke="none" stroke-width="1" fill="none" fill-rule="evenodd">
        <g id="Grad-Date-Mobile" transform="translate(0.000000, -1.000000)" fill="#5D397B">
            <g id="Graduation-Date-Icon-Copy-2" transform="translate(0.000000, 1.000000)">
                <path d="M12.0390907,-2.48689958e-13 L22.1764272,3.83690013 L19.5701518,5.24859078 C19.5787639,5.27591638 19.5870177,5.3036196 19.5949131,5.33170044 C19.9545388,6.61074817 18.3333671,8.22000494 18.9553832,9.52988844 C19.5773994,10.8397719 22.2216435,10.8397719 22.6352427,11.1772266 C22.8325203,11.338185 22.4770705,12.1313801 22.2216435,11.9811775 C21.9662164,11.8309749 19.0093771,11.0005981 18.3333671,9.65769324 C17.6742471,8.34834082 19.1143979,6.65534401 18.9696917,5.57456146 L14.7028106,7.88514967 C15.8157723,8.84039078 16.5375257,10.2269815 16.5998833,11.780621 L16.6042781,12 L5.53475936,12 C5.53475936,10.8787502 5.87805018,9.83651814 6.46670093,8.96981558 L5.81756865e-13,6.52269482 L12.0390907,-2.48689958e-13 Z" id="grad_icon"></path>
            </g>
        </g>
    </g>
</svg>