<?xml version="1.0" encoding="UTF-8"?>
<svg width="39px" height="19px" viewBox="0 0 39 19" version="1.1" xmlns="http://www.w3.org/2000/svg" xmlns:xlink="http://www.w3.org/1999/xlink">
    <!-- Generator: Sketch 59.1 (86144) - https://sketch.com -->
    <title>Combined Shape</title>
    <desc>Created with Sketch.</desc>
    <g id="Symbols" stroke="none" stroke-width="1" fill="none" fill-rule="evenodd">
        <g id="Graduation-Date-Icon" fill="#5D397B">
            <path d="M20.2121444,8.8817842e-15 L37.2314788,5.86022678 L32.7765187,8.05544435 C32.7946326,8.10551562 32.811847,8.15643235 32.828162,8.20819455 C33.4399717,10.149277 30.6819693,12.5914847 31.7401681,14.5793635 C32.7983669,16.5672423 37.2968608,16.5672423 38.0004925,17.0793635 C38.3361089,17.3236338 37.7314035,18.5273865 37.2968608,18.2994391 C36.8623181,18.0714916 31.8320246,16.811312 30.6819693,14.77332 C29.556017,12.7780404 32.0309888,10.1957231 31.7613216,8.55648574 L24.657126,12.0574026 C26.454626,13.4679883 27.6016972,15.4586674 27.677919,17.6754016 L27.6819693,17.9112791 L8.68196932,17.9112791 C8.68196932,16.278866 9.26257268,14.7606485 10.2593675,13.4950786 L-1.77635684e-15,9.96233146 L20.2121444,8.8817842e-15 Z" id="Combined-Shape"></path>
        </g>
    </g>
</svg>