<?xml version="1.0" encoding="UTF-8"?>
<svg width="20px" height="33px" viewBox="0 0 20 33" version="1.1" xmlns="http://www.w3.org/2000/svg" xmlns:xlink="http://www.w3.org/1999/xlink">
    <!-- Generator: Sketch 59.1 (86144) - https://sketch.com -->
    <title>Combined Shape</title>
    <desc>Created with Sketch.</desc>
    <g id="Symbols" stroke="none" stroke-width="1" fill="none" fill-rule="evenodd">
        <g id="Location-Icon" fill="#5D397B">
            <path d="M10,2.84217094e-14 C15.5228475,2.84217094e-14 20,4.83405486 20,10 C20,11.5836648 19.5792454,13.1361392 18.8365959,14.5277167 L10,32.7710018 L1.16876532,14.6956277 C1.06130309,14.4939404 0.960547889,14.2881377 0.866797372,14.0785171 L0.803993981,13.9470842 C0.288439874,12.7362551 0,11.4018119 0,10 C0,4.4771525 4.4771525,2.84217094e-14 10,2.84217094e-14 Z M10,6 C8.34314575,6 7,7.34314575 7,9 C7,10.6568542 8.34314575,12 10,12 C11.6568542,12 13,10.6568542 13,9 C13,7.34314575 11.6568542,6 10,6 Z" id="Combined-Shape"></path>
        </g>
    </g>
</svg>