<?xml version="1.0" encoding="UTF-8"?>
<svg width="8px" height="12px" viewBox="0 0 8 12" version="1.1" xmlns="http://www.w3.org/2000/svg" xmlns:xlink="http://www.w3.org/1999/xlink">
    <!-- Generator: Sketch 59.1 (86144) - https://sketch.com -->
    <title>Location Icon</title>
    <desc>Created with Sketch.</desc>
    <g id="Symbols" stroke="none" stroke-width="1" fill="none" fill-rule="evenodd">
        <g id="Location-Mobile" transform="translate(0.000000, -1.000000)" fill="#5D397B">
            <g id="Location-Icon" transform="translate(0.000000, 1.000000)">
                <path d="M3.63636364,2.84217094e-14 C5.64467182,2.84217094e-14 7.27272727,1.7446213 7.27272727,3.60902256 C7.27272727,4.17413018 7.12315443,4.72823337 6.85875606,5.22608549 L3.63636364,11.8271285 L0.412379845,5.27995439 C0.373690272,5.20657368 0.337469518,5.13170842 0.303827031,5.05546724 L0.292361448,5.03353413 C0.104903542,4.59661812 0,4.114979 0,3.60902256 C0,1.61581444 1.62805546,2.84217094e-14 3.63636364,2.84217094e-14 Z M3.63636364,2.16541353 C3.03387118,2.16541353 2.54545455,2.65015786 2.54545455,3.2481203 C2.54545455,3.84608274 3.03387118,4.33082707 3.63636364,4.33082707 C4.23885609,4.33082707 4.72727273,3.84608274 4.72727273,3.2481203 C4.72727273,2.65015786 4.23885609,2.16541353 3.63636364,2.16541353 Z" id="Combined-Shape"></path>
            </g>
        </g>
    </g>
</svg>